<?xml version="1.0" encoding="iso-8859-1"?>
<!-- Uploaded to: SVG Repo, www.svgrepo.com, Generator: SVG Repo Mixer Tools -->
<svg version="1.1" id="Layer_1" xmlns="http://www.w3.org/2000/svg" xmlns:xlink="http://www.w3.org/1999/xlink" 
	 viewBox="0 0 512 512" xml:space="preserve">
<rect y="57.332" width="512" height="397.336"/>
<circle style="fill:#E21B1B;" cx="44.192" cy="89.38" r="8.928"/>
<g style="opacity:0.7;">
	<circle style="fill:#FFFFFF;" cx="70.968" cy="89.38" r="8.928"/>
</g>
<g>
	<circle style="fill:#666666;" cx="97.736" cy="89.38" r="8.928"/>
	<polygon style="fill:#666666;" points="443.52,105.06 155.96,105.06 175.08,73.716 462.656,73.716 	"/>
</g>
<g>
	<path style="fill:#FFFFFF;" d="M195.2,82.396l1.856,7.128c0.408,1.56,0.8,3.008,1.048,4.456h0.096c0.312-1.416,0.8-2.92,1.24-4.424
		l2.296-7.16h2.144l2.168,7.008c0.52,1.672,0.928,3.16,1.248,4.576h0.088c0.28-1.536,0.64-3.048,1.08-4.544l2.008-7.04h2.52
		l-4.52,14.016h-2.312l-2.144-6.688c-0.488-1.6-0.896-2.952-1.248-4.616h-0.056c-0.336,1.568-0.76,3.12-1.28,4.64l-2.264,6.664
		h-2.312l-4.224-14.016H195.2z"/>
	<path style="fill:#FFFFFF;" d="M216.856,82.396l1.856,7.128c0.408,1.56,0.8,3.008,1.048,4.456h0.088
		c0.32-1.416,0.8-2.92,1.248-4.424l2.28-7.16h2.144l2.176,7.008c0.52,1.672,0.928,3.16,1.24,4.576h0.096
		c0.272-1.536,0.632-3.056,1.08-4.544l2.008-7.04h2.52l-4.52,14.016h-2.328l-2.144-6.688c-0.496-1.512-0.912-3.056-1.24-4.616
		h-0.064c-0.328,1.568-0.752,3.12-1.272,4.64l-2.264,6.664h-2.328l-4.232-14.016H216.856z"/>
	<path style="fill:#FFFFFF;" d="M238.488,82.396l1.856,7.128c0.408,1.56,0.8,3.008,1.048,4.456h0.088
		c0.32-1.416,0.8-2.92,1.248-4.424l2.28-7.16h2.144l2.176,7.008c0.52,1.672,0.928,3.16,1.24,4.576h0.096
		c0.272-1.536,0.632-3.056,1.08-4.544l2.008-7.04h2.52l-4.52,14.016h-2.328l-2.152-6.688c-0.496-1.512-0.912-3.056-1.24-4.616
		h-0.064c-0.328,1.568-0.752,3.12-1.272,4.64l-2.264,6.664h-2.328l-4.232-14.016H238.488z"/>
</g>
<g>
	<polygon style="fill:#666666;" points="0,423.58 82.856,423.58 113.944,454.66 0,454.66 	"/>
	<polygon style="fill:#666666;" points="512,423.58 429.144,423.58 398.056,454.66 512,454.66 	"/>
</g>
<g>
	<path style="fill:#E21B1B;" d="M140.968,214.268l78.48-36.456v17.328l-59.352,25.992v0.328l59.352,25.992v17.344l-78.48-36.456
		L140.968,214.268z"/>
	<path style="fill:#E21B1B;" d="M231.56,271.332l34.992-118.536h16.512l-34.992,118.536H231.56z"/>
	<path style="fill:#E21B1B;" d="M371.032,228.796l-78.48,36v-17.344l60.664-25.992v-0.328l-60.664-25.992v-17.336l78.48,36V228.796z
		"/>
</g>
<g>
	<path style="fill:#FFFFFF;" d="M201.816,358.972l16.68,2.688c-2.256,6.744-6.512,12.64-12.192,16.912
		c-5.448,3.888-12.008,5.928-18.704,5.8c-7.136,0.376-14.112-2.232-19.248-7.2c-4.96-5.408-7.52-12.584-7.112-19.904
		c-0.032-6.752,1.44-13.424,4.304-19.536c2.76-6.04,7.28-11.104,12.968-14.536c5.712-3.512,12.304-5.344,19.008-5.288
		c6.496-0.336,12.88,1.752,17.928,5.856c4.472,3.928,7.184,9.48,7.52,15.424l-16.312,1.736c-0.128-2.912-1.28-5.688-3.256-7.832
		c-1.904-1.72-4.4-2.616-6.96-2.504c-3.44,0.048-6.736,1.368-9.264,3.704c-3.192,3.008-5.48,6.856-6.6,11.096
		c-1.464,4.464-2.24,9.128-2.304,13.832c-0.208,3.128,0.776,6.224,2.752,8.664c1.728,1.984,4.24,3.096,6.872,3.048
		c2.912-0.056,5.72-1.112,7.944-2.992C198.648,365.58,200.72,362.468,201.816,358.972z"/>
	<path style="fill:#FFFFFF;" d="M224.64,365.124l16.616-2.632c1.864,6.272,7.96,10.32,14.464,9.6
		c3.328,0.168,6.624-0.752,9.384-2.632c1.496-0.952,2.424-2.584,2.456-4.36c0-1.16-0.456-2.272-1.256-3.112
		c-2.16-1.488-4.568-2.576-7.112-3.2c-6.752-1.824-13.224-4.56-19.24-8.128c-3.768-2.904-5.928-7.432-5.8-12.192
		c-0.048-4.92,1.984-9.632,5.6-12.968c6.448-5.496,14.8-8.224,23.248-7.592c6.488-0.432,12.952,1.136,18.52,4.488
		c4.112,2.872,6.96,7.216,7.952,12.136l-15.84,2.752c-0.712-2.152-2.144-3.992-4.064-5.2c-2.792-1.616-5.976-2.416-9.2-2.328
		c-2.704-0.224-5.416,0.408-7.744,1.8c-1.408,0.904-2.296,2.448-2.36,4.12c0.032,1.648,0.952,3.16,2.4,3.944
		c3.088,1.408,6.304,2.528,9.6,3.352c5.992,1.368,11.68,3.808,16.8,7.2c3.752,2.832,5.96,7.256,5.976,11.952
		c-0.032,6.096-2.824,11.848-7.584,15.656c-6.08,4.76-13.696,7.12-21.4,6.632c-7.424,0.44-14.808-1.312-21.24-5.048
		C229.824,376.004,226.208,370.948,224.64,365.124z"/>
	<path style="fill:#FFFFFF;" d="M292.712,365.124l16.616-2.632c1.864,6.272,7.96,10.32,14.464,9.6
		c3.328,0.168,6.624-0.752,9.384-2.632c1.496-0.952,2.424-2.584,2.456-4.36c0-1.16-0.456-2.272-1.256-3.112
		c-2.16-1.488-4.568-2.576-7.112-3.2c-6.76-1.824-13.24-4.56-19.264-8.128c-3.768-2.904-5.928-7.432-5.8-12.192
		c-0.048-4.92,1.984-9.632,5.6-12.968c6.448-5.496,14.8-8.224,23.248-7.592c6.496-0.44,12.976,1.12,18.552,4.48
		c4.112,2.872,6.96,7.216,7.952,12.136l-15.84,2.752c-0.712-2.152-2.144-3.992-4.064-5.2c-2.792-1.616-5.976-2.416-9.2-2.328
		c-2.704-0.224-5.416,0.408-7.744,1.8c-1.408,0.904-2.296,2.448-2.36,4.12c0.032,1.648,0.952,3.16,2.4,3.944
		c3.088,1.408,6.304,2.528,9.6,3.352c5.992,1.368,11.68,3.808,16.8,7.2c3.752,2.832,5.96,7.256,5.976,11.952
		c-0.032,6.096-2.824,11.848-7.584,15.656c-6.08,4.76-13.696,7.12-21.4,6.632c-7.424,0.44-14.808-1.312-21.24-5.048
		C297.896,375.996,294.28,370.94,292.712,365.124z"/>
</g>
</svg>